2025-11-24 14:31:50.707 [INF] ===================================================
2025-11-24 14:31:50.730 [INF] UniCast Başlatılıyor... Versiyon: 1.0.0.0
2025-11-24 14:31:50.731 [INF] ===================================================
2025-11-24 14:31:51.166 [INF] MainWindow yüklendi, servisler başlatılıyor...
2025-11-24 14:31:53.215 [INF] [Stream] [start] Başladı: Default
2025-11-24 14:31:53.241 [INF] [Stream] ffmpeg version 2025-10-19-git-dc39a576ad-full_build-www.gyan.dev
2025-11-24 14:31:53.243 [INF] [Stream]  Copyright (c) 2000-2025 the FFmpeg developers
2025-11-24 14:31:53.244 [INF] [Stream]   built with gcc 15.2.0 (Rev8, Built by MSYS2 project)
2025-11-24 14:31:53.246 [INF] [Stream]   configuration: --enable-gpl --enable-version3 --enable-static --disable-w32threads --disable-autodetect --enable-fontconfig --enable-iconv --enable-gnutls --enable-lcms2 --enable-libxml2 --enable-gmp --enable-bzlib --enable-lzma --enable-libsnappy --enable-zlib --enable-librist --enable-libsrt --enable-libssh --enable-libzmq --enable-avisynth --enable-libbluray --enable-libcaca --enable-libdvdnav --enable-libdvdread --enable-sdl2 --enable-libaribb24 --enable-libaribcaption --enable-libdav1d --enable-libdavs2 --enable-libopenjpeg --enable-libquirc --enable-libuavs3d --enable-libxevd --enable-libzvbi --enable-liboapv --enable-libqrencode --enable-librav1e --enable-libsvtav1 --enable-libvvenc --enable-libwebp --enable-libx264 --enable-libx265 --enable-libxavs2 --enable-libxeve --enable-libxvid --enable-libaom --enable-libjxl --enable-libvpx --enable-mediafoundation --enable-libass --enable-frei0r --enable-libfreetype --enable-libfribidi --enable-libharfbuzz --enable-liblensfun --enable-libvidstab --enable-libvmaf --enable-libzimg --enable-amf --enable-cuda-llvm --enable-cuvid --enable-dxva2 --enable-d3d11va --enable-d3d12va --enable-ffnvcodec --enable-libvpl --enable-nvdec --enable-nvenc --enable-vaapi --enable-libshaderc --enable-vulkan --enable-libplacebo --enable-opencl --enable-libcdio --enable-openal --enable-libgme --enable-libmodplug --enable-libopenmpt --enable-libopencore-amrwb --enable-libmp3lame --enable-libshine --enable-libtheora --enable-libtwolame --enable-libvo-amrwbenc --enable-libcodec2 --enable-libilbc --enable-libgsm --enable-liblc3 --enable-libopencore-amrnb --enable-libopus --enable-libspeex --enable-libvorbis --enable-ladspa --enable-libbs2b --enable-libflite --enable-libmysofa --enable-librubberband --enable-libsoxr --enable-chromaprint --enable-whisper
2025-11-24 14:31:53.247 [INF] [Stream]   libavutil      60. 13.100 / 60. 13.100
2025-11-24 14:31:53.248 [INF] [Stream]   libavcodec     62. 16.100 / 62. 16.100
2025-11-24 14:31:53.249 [INF] [Stream]   libavformat    62.  6.101 / 62.  6.101
2025-11-24 14:31:53.251 [INF] [Stream]   libavdev
2025-11-24 14:31:53.252 [INF] [Stream] ice    62.  2.100 / 62.  2.100
2025-11-24 14:31:53.253 [INF] [Stream]   libavfilter    11.  9.100 / 11.  9.100
2025-11-24 14:31:53.254 [INF] [Stream]   libswscale      9.  3.100 /  9.  3.100
2025-11-24 14:31:53.255 [INF] [Stream]   libswresample   6.  2.100 /  6.  2.100
2025-11-24 14:31:53.256 [INF] [Stream] [gdigrab @ 000001d492517100] Capturing whole desktop as 1920x1080x32 at (0,0)
2025-11-24 14:31:53.291 [INF] [Stream] [gdigrab @ 000001d492517100]
2025-11-24 14:31:53.297 [INF] [Stream]  Stream #0: not enough frames to estimate rate; consider increasing probesize
2025-11-24 14:31:53.298 [INF] [Stream] Input #0, gdigrab, from 'desktop':
2025-11-24 14:31:53.299 [INF] [Stream]   Duration: N/A, start: 1763983913.273239, bitrate: 1990668 kb/s
2025-11-24 14:31:53.301 [INF] [Stream]   Stream #0:0: Video: bmp, bgra, 1920x1080, 1990668 kb/s, 30 fps, 1000k tbr, 1000k tbn, start 1763983913.273239
2025-11-24 14:31:53.302 [INF] [Stream] [out @ 000001d492522b80] The "sample_fmts" option is deprecated: set the supported sample formats
2025-11-24 14:31:53.303 [INF] [Stream] [out @ 000001d492522b80] The "all_channel_counts" option is deprecated: accept all channel counts
2025-11-24 14:31:53.304 [INF] [Stream] Input #1, lavfi, from 'anullsrc=channel_layout=stereo:sample_rate=44100':
2025-11-24 14:31:53.305 [INF] [Stream]   Duration: N/A, start: 0.000000, bitrate: 705 kb/s
2025-11-24 14:31:53.306 [INF] [Stream]   Stream #1:0: Audio: pcm_u8, 44100 Hz, stereo, u8, 705 kb/s
2025-11-24 14:31:53.307 [INF] [Stream] Stream mapping:
2025-11-24 14:31:53.308 [INF] [Stream]   Stream #0:0 -> #0:0 (bmp (native) -> h264 (libx264))
2025-11-24 14:31:53.309 [INF] [Stream]   Stream #1:0 -> #0:1 (pcm_u8 (native) -> aac (native))
2025-11-24 14:31:53.310 [INF] [Stream] Press [q] to stop, [?] for help
2025-11-24 14:31:53.331 [INF] [Stream] [libx264 @ 000001d49252b040]
2025-11-24 14:31:53.333 [INF] [Stream]  using cpu capabilities: MMX2 SSE2Fast SSSE3 SSE4.2 AVX FMA3 BMI2 AVX2 AVX512
2025-11-24 14:31:53.334 [INF] [Stream] [libx264 @ 000001d49252b040] profile High 4:4:4 Predictive, level 3.1, 4:4:4, 8-bit
2025-11-24 14:31:54.715 [INF] [Stream] [rtmps @ 000001d4961e88c0]
2025-11-24 14:31:54.718 [ERR] [Stream]  Server error: Publish Rejected: Invalid URL
2025-11-24 14:31:54.720 [ERR] [Stream] [tee @ 000001d492523000] Slave '[f=flv]rtmps://live-api-s.facebook.com:443/rtmp/FB-1526913761827855-0-Ab2GXPRKntgJTLPWN8A08ZSR': error opening: Operation not permitted
2025-11-24 14:31:54.722 [ERR] [Stream] [tee @ 000001d492523000] Slave muxer #1 failed: Operation not permitted, continuing with 1/2 slaves.
2025-11-24 14:31:54.724 [INF] [Stream] Output #0, tee, to '[f=flv]rtmps://a.rtmps.youtube.com/live2/e54v-pkzg-y2ss-wjff-6ghh|[f=flv]rtmps://live-api-s.facebook.com:443/rtmp/FB-1526913761827855-0-Ab2GXPRKntgJTLPWN8A08ZSR':
2025-11-24 14:31:54.726 [INF] [Stream]   Metadata:
2025-11-24 14:31:54.728 [INF] [Stream]     encoder         : Lavf62.6.101
2025-11-24 14:31:54.730 [INF] [Stream]   Stream #0:0: Video: h264, yuv444p(tv, progressive), 1280x720, q=2-31, 3500 kb/s, 30 fps, 30 tbn
2025-11-24 14:31:54.731 [INF] [Stream]     Metadata:
2025-11-24 14:31:54.733 [INF] [Stream]       encoder         : Lavc62.16.100 libx264
2025-11-24 14:31:54.735 [INF] [Stream]     Side data:
2025-11-24 14:31:54.736 [INF] [Stream]       CPB properties: bitrate max/min/avg: 3500000/0/3500000 buffer size: 7000000 vbv_delay: N/A
2025-11-24 14:31:54.738 [INF] [Stream]   Stream #0:1: Audio: aac (LC), 44100 Hz, stereo, fltp, 128 kb/s
2025-11-24 14:31:54.739 [INF] [Stream]     Metadata:
2025-11-24 14:31:54.741 [INF] [Stream]       encoder         : Lavc62.16.100 aac
2025-11-24 14:32:00.596 [ERR] [Stream] stderr read error: A task was canceled.
2025-11-24 14:32:00.620 [INF] [Stream] FFmpeg: Yayın hatası oluştu. RTMP adresini, stream key’i ve internet bağlantısını kontrol edin.
2025-11-24 14:32:00.621 [WRN] [Stream] FFmpeg beklenmedik çıkış kodu: -1
2025-11-24 14:32:01.656 [INF] MainWindow kapatılıyor, kaynaklar serbest bırakılıyor...
2025-11-24 14:32:01.659 [INF] [Stream] [stop] Süreç yok.
2025-11-24 14:32:01.662 [INF] Uygulama kapatılıyor. Çıkış Kodu: 0
2025-11-24 14:45:26.939 [INF] ===================================================
2025-11-24 14:45:26.961 [INF] UniCast Başlatılıyor... Versiyon: 1.0.0.0
2025-11-24 14:45:26.962 [INF] ===================================================
2025-11-24 14:45:27.461 [INF] MainWindow yüklendi, servisler başlatılıyor...
2025-11-24 14:45:29.045 [INF] [Stream] [start] Başladı: Default
2025-11-24 14:45:29.071 [INF] [Stream] ffmpeg version 2025-10-19-git-dc39a576ad-full_build-www.gyan.dev
2025-11-24 14:45:29.072 [INF] [Stream]  Copyright (c) 2000-2025 the FFmpeg developers
2025-11-24 14:45:29.073 [INF] [Stream]   built with gcc 15.2.0 (Rev8, Built by MSYS2 project)
2025-11-24 14:45:29.074 [INF] [Stream]   configuration: --enable-gpl --enable-version3 --enable-static --disable-w32threads --disable-autodetect --enable-fontconfig --enable-iconv --enable-gnutls --enable-lcms2 --enable-libxml2 --enable-gmp --enable-bzlib --enable-lzma --enable-libsnappy --enable-zlib --enable-librist --enable-libsrt --enable-libssh --enable-libzmq --enable-avisynth --enable-libbluray --enable-libcaca --enable-libdvdnav --enable-libdvdread --enable-sdl2 --enable-libaribb24 --enable-libaribcaption --enable-libdav1d --enable-libdavs2 --enable-libopenjpeg --enable-libquirc --enable-libuavs3d --enable-libxevd --enable-libzvbi --enable-liboapv --enable-libqrencode --enable-librav1e --enable-libsvtav1 --enable-libvvenc --enable-libwebp --enable-libx264 --enable-libx265 --enable-libxavs2 --enable-libxeve --enable-libxvid --enable-libaom --enable-libjxl --enable-libvpx --enable-mediafoundation --enable-libass --enable-frei0r --enable-libfreetype --enable-libfribidi --enable-libharfbuzz --enable-liblensfun --enable-libvidstab --enable-libvmaf --enable-libzimg --enable-amf --enable-cuda-llvm --enable-cuvid --enable-dxva2 --enable-d3d11va --enable-d3d12va --enable-ffnvcodec --enable-libvpl --enable-nvdec --enable-nvenc --enable-vaapi --enable-libshaderc --enable-vulkan --enable-libplacebo --enable-opencl --enable-libcdio --enable-openal --enable-libgme --enable-libmodplug --enable-libopenmpt --enable-libopencore-amrwb --enable-libmp3lame --enable-libshine --enable-libtheora --enable-libtwolame --enable-libvo-amrwbenc --enable-libcodec2 --enable-libilbc --enable-libgsm --enable-liblc3 --enable-libopencore-amrnb --enable-libopus --enable-libspeex --enable-libvorbis --enable-ladspa --enable-libbs2b --enable-libflite --enable-libmysofa --enable-librubberband --enable-libsoxr --enable-chromaprint --enable-whisper
2025-11-24 14:45:29.075 [INF] [Stream]   libavutil      60. 13.100 / 60. 13.100
2025-11-24 14:45:29.076 [INF] [Stream]   libavcodec     62. 16.100 / 62. 16.100
2025-11-24 14:45:29.077 [INF] [Stream]   libavformat    62.  6.101 / 62.  6.101
2025-11-24 14:45:29.078 [INF] [Stream]   libavdev
2025-11-24 14:45:29.079 [INF] [Stream] ice    62.  2.100 / 62.  2.100
2025-11-24 14:45:29.080 [INF] [Stream]   libavfilter    11.  9.100 / 11.  9.100
2025-11-24 14:45:29.081 [INF] [Stream]   libswscale      9.  3.100 /  9.  3.100
2025-11-24 14:45:29.082 [INF] [Stream]   libswresample   6.  2.100 /  6.  2.100
2025-11-24 14:45:29.083 [INF] [Stream] [gdigrab @ 000001a1ee917100] Capturing whole desktop as 1920x1080x32 at (0,0)
2025-11-24 14:45:29.126 [INF] [Stream] [gdigrab @ 000001a1ee917100]
2025-11-24 14:45:29.133 [INF] [Stream]  Stream #0: not enough frames to estimate rate; consider increasing probesize
2025-11-24 14:45:29.134 [INF] [Stream] Input #0, gdigrab, from 'desktop':
2025-11-24 14:45:29.136 [INF] [Stream]   Duration: N/A, start: 1763984729.103331, bitrate: 1990668 kb/s
2025-11-24 14:45:29.137 [INF] [Stream]   Stream #0:0: Video: bmp, bgra, 1920x1080, 1990668 kb/s, 30 fps, 1000k tbr, 1000k tbn, start 1763984729.103331
2025-11-24 14:45:29.138 [INF] [Stream] [out @ 000001a1ee922b80] The "sample_fmts" option is deprecated: set the supported sample formats
2025-11-24 14:45:29.139 [INF] [Stream] [out @ 000001a1ee922b80] The "all_channel_counts" option is deprecated: accept all channel counts
2025-11-24 14:45:29.140 [INF] [Stream] Input #1, lavfi, from 'anullsrc=channel_layout=stereo:sample_rate=44100':
2025-11-24 14:45:29.141 [INF] [Stream]   Duration: N/A, start: 0.000000, bitrate: 705 kb/s
2025-11-24 14:45:29.142 [INF] [Stream]   Stream #1:0: Audio: pcm_u8, 44100 Hz, stereo, u8, 705 kb/s
2025-11-24 14:45:29.143 [INF] [Stream] Stream mapping:
2025-11-24 14:45:29.144 [INF] [Stream]   Stream #0:0 -> #0:0 (bmp (native) -> h264 (libx264))
2025-11-24 14:45:29.145 [INF] [Stream]   Stream #1:0 -> #0:1 (pcm_u8 (native) -> aac (native))
2025-11-24 14:45:29.146 [INF] [Stream] Press [q] to stop, [?] for help
2025-11-24 14:45:29.164 [INF] [Stream] [libx264 @ 000001a1ee92b040]
2025-11-24 14:45:29.166 [INF] [Stream]  using cpu capabilities: MMX2 SSE2Fast SSSE3 SSE4.2 AVX FMA3 BMI2 AVX2 AVX512
2025-11-24 14:45:29.168 [INF] [Stream] [libx264 @ 000001a1ee92b040] profile High 4:4:4 Predictive, level 3.1, 4:4:4, 8-bit
2025-11-24 14:45:30.714 [INF] [Stream] [rtmps @ 000001a1f26024c0]
2025-11-24 14:45:30.717 [ERR] [Stream]  Server error: Publish Rejected: Invalid URL
2025-11-24 14:45:30.718 [ERR] [Stream] [tee @ 000001a1ee923000] Slave '[f=flv]rtmps://live-api-s.facebook.com:443/rtmp/FB-1526913761827855-0-Ab2GXPRKntgJTLPWN8A08ZSR': error opening: Operation not permitted
2025-11-24 14:45:30.719 [ERR] [Stream] [tee @ 000001a1ee923000] Slave muxer #1 failed: Operation not permitted, continuing with 1/2 slaves.
2025-11-24 14:45:30.721 [INF] [Stream] Output #0, tee, to '[f=flv]rtmps://a.rtmps.youtube.com/live2/e54v-pkzg-y2ss-wjff-6ghh|[f=flv]rtmps://live-api-s.facebook.com:443/rtmp/FB-1526913761827855-0-Ab2GXPRKntgJTLPWN8A08ZSR':
2025-11-24 14:45:30.723 [INF] [Stream]   Metadata:
2025-11-24 14:45:30.725 [INF] [Stream]     encoder         : Lavf62.6.101
2025-11-24 14:45:30.726 [INF] [Stream]   Stream #0:0: Video: h264, yuv444p(tv, progressive), 1280x720, q=2-31, 3500 kb/s, 30 fps, 30 tbn
2025-11-24 14:45:30.728 [INF] [Stream]     Metadata:
2025-11-24 14:45:30.730 [INF] [Stream]       encoder         : Lavc62.16.100 libx264
2025-11-24 14:45:30.731 [INF] [Stream]     Side data:
2025-11-24 14:45:30.733 [INF] [Stream]       CPB properties: bitrate max/min/avg: 3500000/0/3500000 buffer size: 7000000 vbv_delay: N/A
2025-11-24 14:45:30.734 [INF] [Stream]   Stream #0:1: Audio: aac (LC), 44100 Hz, stereo, fltp, 128 kb/s
2025-11-24 14:45:30.736 [INF] [Stream]     Metadata:
2025-11-24 14:45:30.738 [INF] [Stream]       encoder         : Lavc62.16.100 aac
2025-11-24 14:45:41.901 [INF] MainWindow kapatılıyor, kaynaklar serbest bırakılıyor...
2025-11-24 14:45:41.985 [INF] [Stream] FFmpeg: Yayın hatası oluştu. RTMP adresini, stream key’i ve internet bağlantısını kontrol edin.
2025-11-24 14:45:41.987 [WRN] [Stream] FFmpeg beklenmedik çıkış kodu: -1
2025-11-24 15:30:48.465 [INF] ===================================================
2025-11-24 15:30:48.486 [INF] UniCast Başlatılıyor... Versiyon: 1.0.0.0
2025-11-24 15:30:48.487 [INF] ===================================================
2025-11-24 15:30:48.918 [INF] MainWindow yüklendi, servisler başlatılıyor...
2025-11-24 15:30:51.076 [INF] MainWindow kapatılıyor, kaynaklar serbest bırakılıyor...
2025-11-24 15:30:51.083 [INF] [Stream] [stop] Süreç yok.
2025-11-24 15:30:51.086 [INF] Uygulama kapatılıyor. Çıkış Kodu: 0
2025-11-24 15:35:28.199 [INF] ===================================================
2025-11-24 15:35:28.220 [INF] UniCast Başlatılıyor... Versiyon: 1.0.0.0
2025-11-24 15:35:28.221 [INF] ===================================================
2025-11-24 15:35:28.630 [INF] MainWindow yüklendi, servisler başlatılıyor...
2025-11-24 15:35:31.414 [INF] MainWindow kapatılıyor, kaynaklar serbest bırakılıyor...
2025-11-24 15:35:31.422 [INF] [Stream] [stop] Süreç yok.
2025-11-24 15:35:31.425 [INF] Uygulama kapatılıyor. Çıkış Kodu: 0
2025-11-24 15:41:09.752 [INF] ===================================================
2025-11-24 15:41:09.771 [INF] UniCast Başlatılıyor... Versiyon: 1.0.0.0
2025-11-24 15:41:09.772 [INF] ===================================================
2025-11-24 15:41:10.235 [INF] MainWindow yüklendi, servisler başlatılıyor...
2025-11-24 15:41:23.293 [INF] MainWindow kapatılıyor, kaynaklar serbest bırakılıyor...
2025-11-24 15:41:23.304 [INF] [Stream] [stop] Süreç yok.
2025-11-24 15:41:23.309 [INF] Uygulama kapatılıyor. Çıkış Kodu: 0
2025-11-24 17:19:13.961 [INF] ===================================================
2025-11-24 17:19:13.983 [INF] UniCast Başlatılıyor... Versiyon: 1.0.0.0
2025-11-24 17:19:13.984 [INF] ===================================================
2025-11-24 17:19:14.465 [INF] MainWindow yüklendi, servisler başlatılıyor...
2025-11-24 17:19:22.525 [INF] [Stream] [start] Başladı: Default
2025-11-24 17:19:22.552 [INF] [Stream] ffmpeg version 2025-10-19-git-dc39a576ad-full_build-www.gyan.dev
2025-11-24 17:19:22.554 [INF] [Stream]  Copyright (c) 2000-2025 the FFmpeg developers
2025-11-24 17:19:22.555 [INF] [Stream]   built with gcc 15.2.0 (Rev8, Built by MSYS2 project)
2025-11-24 17:19:22.556 [INF] [Stream]   configuration: --enable-gpl --enable-version3 --enable-static --disable-w32threads --disable-autodetect --enable-fontconfig --enable-iconv --enable-gnutls --enable-lcms2 --enable-libxml2 --enable-gmp --enable-bzlib --enable-lzma --enable-libsnappy --enable-zlib --enable-librist --enable-libsrt --enable-libssh --enable-libzmq --enable-avisynth --enable-libbluray --enable-libcaca --enable-libdvdnav --enable-libdvdread --enable-sdl2 --enable-libaribb24 --enable-libaribcaption --enable-libdav1d --enable-libdavs2 --enable-libopenjpeg --enable-libquirc --enable-libuavs3d --enable-libxevd --enable-libzvbi --enable-liboapv --enable-libqrencode --enable-librav1e --enable-libsvtav1 --enable-libvvenc --enable-libwebp --enable-libx264 --enable-libx265 --enable-libxavs2 --enable-libxeve --enable-libxvid --enable-libaom --enable-libjxl --enable-libvpx --enable-mediafoundation --enable-libass --enable-frei0r --enable-libfreetype --enable-libfribidi --enable-libharfbuzz --enable-liblensfun --enable-libvidstab --enable-libvmaf --enable-libzimg --enable-amf --enable-cuda-llvm --enable-cuvid --enable-dxva2 --enable-d3d11va --enable-d3d12va --enable-ffnvcodec --enable-libvpl --enable-nvdec --enable-nvenc --enable-vaapi --enable-libshaderc --enable-vulkan --enable-libplacebo --enable-opencl --enable-libcdio --enable-openal --enable-libgme --enable-libmodplug --enable-libopenmpt --enable-libopencore-amrwb --enable-libmp3lame --enable-libshine --enable-libtheora --enable-libtwolame --enable-libvo-amrwbenc --enable-libcodec2 --enable-libilbc --enable-libgsm --enable-liblc3 --enable-libopencore-amrnb --enable-libopus --enable-libspeex --enable-libvorbis --enable-ladspa --enable-libbs2b --enable-libflite --enable-libmysofa --enable-librubberband --enable-libsoxr --enable-chromaprint --enable-whisper
2025-11-24 17:19:22.557 [INF] [Stream]   libavutil      60. 13.100 / 60. 13.100
2025-11-24 17:19:22.558 [INF] [Stream]   libavcodec     62. 16.100 / 62. 16.100
2025-11-24 17:19:22.559 [INF] [Stream]   libavformat    62.  6.101 / 62.  6.101
2025-11-24 17:19:22.560 [INF] [Stream]   libavdev
2025-11-24 17:19:22.561 [INF] [Stream] ice    62.  2.100 / 62.  2.100
2025-11-24 17:19:22.562 [INF] [Stream]   libavfilter    11.  9.100 / 11.  9.100
2025-11-24 17:19:22.564 [INF] [Stream]   libswscale      9.  3.100 /  9.  3.100
2025-11-24 17:19:22.564 [INF] [Stream]   libswresample   6.  2.100 /  6.  2.100
2025-11-24 17:19:22.565 [INF] [Stream] [gdigrab @ 0000022063707140] Capturing whole desktop as 1920x1080x32 at (0,0)
2025-11-24 17:19:22.607 [INF] [Stream] [gdigrab @ 0000022063707140]
2025-11-24 17:19:22.613 [INF] [Stream]  Stream #0: not enough frames to estimate rate; consider increasing probesize
2025-11-24 17:19:22.615 [INF] [Stream] Input #0, gdigrab, from 'desktop':
2025-11-24 17:19:22.617 [INF] [Stream]   Duration: N/A, start: 1763993962.584765, bitrate: 1990668 kb/s
2025-11-24 17:19:22.619 [INF] [Stream]   Stream #0:0: Video: bmp, bgra, 1920x1080, 1990668 kb/s, 30 fps, 1000k tbr, 1000k tbn, start 1763993962.584765
2025-11-24 17:19:22.621 [INF] [Stream] [out @ 0000022063712d00] The "sample_fmts" option is deprecated: set the supported sample formats
2025-11-24 17:19:22.622 [INF] [Stream] [out @ 0000022063712d00] The "all_channel_counts" option is deprecated: accept all channel counts
2025-11-24 17:19:22.624 [INF] [Stream] Input #1, lavfi, from 'anullsrc=channel_layout=stereo:sample_rate=44100':
2025-11-24 17:19:22.626 [INF] [Stream]   Duration: N/A, start: 0.000000, bitrate: 705 kb/s
2025-11-24 17:19:22.628 [INF] [Stream]   Stream #1:0: Audio: pcm_u8, 44100 Hz, stereo, u8, 705 kb/s
2025-11-24 17:19:22.631 [INF] [Stream] Stream mapping:
2025-11-24 17:19:22.632 [INF] [Stream]   Stream #0:0 -> #0:0 (bmp (native) -> h264 (libx264))
2025-11-24 17:19:22.633 [INF] [Stream]   Stream #1:0 -> #0:1 (pcm_u8 (native) -> aac (native))
2025-11-24 17:19:22.635 [INF] [Stream] Press [q] to stop, [?] for help
2025-11-24 17:19:22.655 [INF] [Stream] [libx264 @ 000002206371b080]
2025-11-24 17:19:22.656 [INF] [Stream]  using cpu capabilities: MMX2 SSE2Fast SSSE3 SSE4.2 AVX FMA3 BMI2 AVX2 AVX512
2025-11-24 17:19:22.658 [INF] [Stream] [libx264 @ 000002206371b080] profile High 4:4:4 Predictive, level 3.1, 4:4:4, 8-bit
2025-11-24 17:19:23.795 [INF] [Stream] [rtmps @ 00000220672f80c0]
2025-11-24 17:19:23.798 [ERR] [Stream]  Server error: Publish Rejected: Invalid URL
2025-11-24 17:19:23.800 [ERR] [Stream] [tee @ 0000022063713140] Slave '[f=flv]rtmps://live-api-s.facebook.com:443/rtmp/FB-1526913761827855-0-Ab2GXPRKntgJTLPWN8A08ZSR': error opening: Operation not permitted
2025-11-24 17:19:23.801 [ERR] [Stream] [tee @ 0000022063713140] Slave muxer #1 failed: Operation not permitted, continuing with 1/2 slaves.
2025-11-24 17:19:23.803 [INF] [Stream] Output #0, tee, to '[f=flv]rtmps://a.rtmps.youtube.com/live2/e54v-pkzg-y2ss-wjff-6ghh|[f=flv]rtmps://live-api-s.facebook.com:443/rtmp/FB-1526913761827855-0-Ab2GXPRKntgJTLPWN8A08ZSR':
2025-11-24 17:19:23.804 [INF] [Stream]   Metadata:
2025-11-24 17:19:23.806 [INF] [Stream]     encoder         : Lavf62.6.101
2025-11-24 17:19:23.807 [INF] [Stream]   Stream #0:0: Video: h264, yuv444p(tv, progressive), 1280x720, q=2-31, 3500 kb/s, 30 fps, 30 tbn
2025-11-24 17:19:23.809 [INF] [Stream]     Metadata:
2025-11-24 17:19:23.811 [INF] [Stream]       encoder         : Lavc62.16.100 libx264
2025-11-24 17:19:23.813 [INF] [Stream]     Side data:
2025-11-24 17:19:23.815 [INF] [Stream]       CPB properties: bitrate max/min/avg: 3500000/0/3500000 buffer size: 7000000 vbv_delay: N/A
2025-11-24 17:19:23.816 [INF] [Stream]   Stream #0:1: Audio: aac (LC), 44100 Hz, stereo, fltp, 128 kb/s
2025-11-24 17:19:23.818 [INF] [Stream]     Metadata:
2025-11-24 17:19:23.819 [INF] [Stream]       encoder         : Lavc62.16.100 aac
2025-11-24 17:19:28.393 [ERR] [Stream] stderr read error: A task was canceled.
2025-11-24 17:19:28.412 [INF] [Stream] FFmpeg: Yayın hatası oluştu. RTMP adresini, stream key’i ve internet bağlantısını kontrol edin.
2025-11-24 17:19:28.414 [WRN] [Stream] FFmpeg beklenmedik çıkış kodu: -1
2025-11-24 17:19:29.551 [INF] MainWindow kapatılıyor, kaynaklar serbest bırakılıyor...
2025-11-24 17:19:29.553 [INF] [Stream] [stop] Süreç yok.
2025-11-24 17:19:29.556 [INF] Uygulama kapatılıyor. Çıkış Kodu: 0
2025-11-24 17:29:04.314 [INF] ===================================================
2025-11-24 17:29:04.335 [INF] UniCast Başlatılıyor... Versiyon: 1.0.0.0
2025-11-24 17:29:04.336 [INF] ===================================================
2025-11-24 17:29:05.071 [INF] MainWindow yüklendi, servisler başlatılıyor...
2025-11-24 17:29:07.006 [INF] [Stream] [start] Yayın başladı. Profil: Default
2025-11-24 17:29:07.032 [INF] [Stream] ffmpeg version 2025-10-19-git-dc39a576ad-full_build-www.gyan.dev
2025-11-24 17:29:07.034 [INF] [Stream]  Copyright (c) 2000-2025 the FFmpeg developers
2025-11-24 17:29:07.036 [INF] [Stream]   built with gcc 15.2.0 (Rev8, Built by MSYS2 project)
2025-11-24 17:29:07.038 [INF] [Stream]   configuration: --enable-gpl --enable-version3 --enable-static --disable-w32threads --disable-autodetect --enable-fontconfig --enable-iconv --enable-gnutls --enable-lcms2 --enable-libxml2 --enable-gmp --enable-bzlib --enable-lzma --enable-libsnappy --enable-zlib --enable-librist --enable-libsrt --enable-libssh --enable-libzmq --enable-avisynth --enable-libbluray --enable-libcaca --enable-libdvdnav --enable-libdvdread --enable-sdl2 --enable-libaribb24 --enable-libaribcaption --enable-libdav1d --enable-libdavs2 --enable-libopenjpeg --enable-libquirc --enable-libuavs3d --enable-libxevd --enable-libzvbi --enable-liboapv --enable-libqrencode --enable-librav1e --enable-libsvtav1 --enable-libvvenc --enable-libwebp --enable-libx264 --enable-libx265 --enable-libxavs2 --enable-libxeve --enable-libxvid --enable-libaom --enable-libjxl --enable-libvpx --enable-mediafoundation --enable-libass --enable-frei0r --enable-libfreetype --enable-libfribidi --enable-libharfbuzz --enable-liblensfun --enable-libvidstab --enable-libvmaf --enable-libzimg --enable-amf --enable-cuda-llvm --enable-cuvid --enable-dxva2 --enable-d3d11va --enable-d3d12va --enable-ffnvcodec --enable-libvpl --enable-nvdec --enable-nvenc --enable-vaapi --enable-libshaderc --enable-vulkan --enable-libplacebo --enable-opencl --enable-libcdio --enable-openal --enable-libgme --enable-libmodplug --enable-libopenmpt --enable-libopencore-amrwb --enable-libmp3lame --enable-libshine --enable-libtheora --enable-libtwolame --enable-libvo-amrwbenc --enable-libcodec2 --enable-libilbc --enable-libgsm --enable-liblc3 --enable-libopencore-amrnb --enable-libopus --enable-libspeex --enable-libvorbis --enable-ladspa --enable-libbs2b --enable-libflite --enable-libmysofa --enable-librubberband --enable-libsoxr --enable-chromaprint --enable-whisper
2025-11-24 17:29:07.039 [INF] [Stream]   libavutil      60. 13.100 / 60. 13.100
2025-11-24 17:29:07.042 [INF] [Stream]   libavcodec     62. 16.100 / 62. 16.100
2025-11-24 17:29:07.043 [INF] [Stream]   libavformat    62.  6.101 / 62.  6.101
2025-11-24 17:29:07.044 [INF] [Stream]   libavdev
2025-11-24 17:29:07.046 [INF] [Stream] ice    62.  2.100 / 62.  2.100
2025-11-24 17:29:07.047 [INF] [Stream]   libavfilter    11.  9.100 / 11.  9.100
2025-11-24 17:29:07.048 [INF] [Stream]   libswscale      9.  3.100 /  9.  3.100
2025-11-24 17:29:07.049 [INF] [Stream]   libswresample   6.  2.100 /  6.  2.100
2025-11-24 17:29:07.050 [INF] [Stream] [gdigrab @ 0000024a340c7140] Capturing whole desktop as 1920x1080x32 at (0,0)
2025-11-24 17:29:07.082 [INF] [Stream] [gdigrab @ 0000024a340c7140]
2025-11-24 17:29:07.088 [INF] [Stream]  Stream #0: not enough frames to estimate rate; consider increasing probesize
2025-11-24 17:29:07.090 [INF] [Stream] Input #0, gdigrab, from 'desktop':
2025-11-24 17:29:07.091 [INF] [Stream]   Duration: N/A, start: 1763994547.062954, bitrate: 1990668 kb/s
2025-11-24 17:29:07.093 [INF] [Stream]   Stream #0:0: Video: bmp, bgra, 1920x1080, 1990668 kb/s, 30 fps, 1000k tbr, 1000k tbn, start 1763994547.062954
2025-11-24 17:29:07.094 [INF] [Stream] [out @ 0000024a340d2d00] The "sample_fmts" option is deprecated: set the supported sample formats
2025-11-24 17:29:07.096 [INF] [Stream] [out @ 0000024a340d2d00] The "all_channel_counts" option is deprecated: accept all channel counts
2025-11-24 17:29:07.096 [INF] [Stream] Input #1, lavfi, from 'anullsrc=channel_layout=stereo:sample_rate=44100':
2025-11-24 17:29:07.097 [INF] [Stream]   Duration: N/A, start: 0.000000, bitrate: 705 kb/s
2025-11-24 17:29:07.099 [INF] [Stream]   Stream #1:0: Audio: pcm_u8, 44100 Hz, stereo, u8, 705 kb/s
2025-11-24 17:29:07.100 [INF] [Stream] Stream mapping:
2025-11-24 17:29:07.102 [INF] [Stream]   Stream #0:0 -> #0:0 (bmp (native) -> h264 (libx264))
2025-11-24 17:29:07.103 [INF] [Stream]   Stream #1:0 -> #0:1 (pcm_u8 (native) -> aac (native))
2025-11-24 17:29:07.104 [INF] [Stream] Press [q] to stop, [?] for help
2025-11-24 17:29:07.132 [INF] [Stream] [libx264 @ 0000024a340db080]
2025-11-24 17:29:07.135 [INF] [Stream]  using cpu capabilities: MMX2 SSE2Fast SSSE3 SSE4.2 AVX FMA3 BMI2 AVX2 AVX512
2025-11-24 17:29:07.136 [INF] [Stream] [libx264 @ 0000024a340db080] profile High 4:4:4 Predictive, level 3.1, 4:4:4, 8-bit
2025-11-24 17:29:08.586 [INF] [Stream] [rtmps @ 0000024a38468080]
2025-11-24 17:29:08.588 [ERR] [Stream]  Server error: Publish Rejected: Invalid URL
2025-11-24 17:29:08.589 [ERR] [Stream] [tee @ 0000024a340d3140] Slave '[f=flv]rtmps://live-api-s.facebook.com:443/rtmp/FB-1526913761827855-0-Ab2GXPRKntgJTLPWN8A08ZSR': error opening: Operation not permitted
2025-11-24 17:29:08.591 [ERR] [Stream] [tee @ 0000024a340d3140] Slave muxer #1 failed: Operation not permitted, continuing with 1/2 slaves.
2025-11-24 17:29:08.593 [INF] [Stream] Output #0, tee, to '[f=flv]rtmps://a.rtmps.youtube.com/live2/e54v-pkzg-y2ss-wjff-6ghh|[f=flv]rtmps://live-api-s.facebook.com:443/rtmp/FB-1526913761827855-0-Ab2GXPRKntgJTLPWN8A08ZSR':
2025-11-24 17:29:08.594 [INF] [Stream]   Metadata:
2025-11-24 17:29:08.596 [INF] [Stream]     encoder         : Lavf62.6.101
2025-11-24 17:29:08.598 [INF] [Stream]   Stream #0:0: Video: h264, yuv444p(tv, progressive), 1280x720, q=2-31, 3500 kb/s, 30 fps, 30 tbn
2025-11-24 17:29:08.600 [INF] [Stream]     Metadata:
2025-11-24 17:29:08.601 [INF] [Stream]       encoder         : Lavc62.16.100 libx264
2025-11-24 17:29:08.603 [INF] [Stream]     Side data:
2025-11-24 17:29:08.605 [INF] [Stream]       CPB properties: bitrate max/min/avg: 3500000/0/3500000 buffer size: 7000000 vbv_delay: N/A
2025-11-24 17:29:08.607 [INF] [Stream]   Stream #0:1: Audio: aac (LC), 44100 Hz, stereo, fltp, 128 kb/s
2025-11-24 17:29:08.609 [INF] [Stream]     Metadata:
2025-11-24 17:29:08.610 [INF] [Stream]       encoder         : Lavc62.16.100 aac
2025-11-24 17:29:14.866 [INF] MainWindow kapatılıyor, kaynaklar serbest bırakılıyor...
2025-11-24 17:29:14.868 [INF] [Stream] [stop] Yayın durduruluyor...
2025-11-24 17:29:14.939 [INF] [Stream] FFmpeg: Yayın hatası oluştu. RTMP adresini, stream key’i ve internet bağlantısını kontrol edin.
2025-11-24 17:29:14.941 [WRN] [Stream] FFmpeg beklenmedik çıkış kodu: -1
2025-11-24 17:29:14.943 [INF] [Stream] [ffmpeg] Çıkış kodu: -1
2025-11-24 17:42:43.690 [INF] ===================================================
2025-11-24 17:42:43.714 [INF] UniCast Başlatılıyor... Versiyon: 1.0.0.0
2025-11-24 17:42:43.715 [INF] ===================================================
2025-11-24 17:42:44.300 [INF] MainWindow yüklendi, servisler başlatılıyor...
2025-11-24 17:42:52.066 [INF] [Stream] [start] Yayın başladı. Profil: Default
2025-11-24 17:42:52.097 [INF] [Stream] ffmpeg version 2025-10-19-git-dc39a576ad-full_build-www.gyan.dev
2025-11-24 17:42:52.099 [INF] [Stream]  Copyright (c) 2000-2025 the FFmpeg developers
2025-11-24 17:42:52.101 [INF] [Stream]   built with gcc 15.2.0 (Rev8, Built by MSYS2 project)
2025-11-24 17:42:52.102 [INF] [Stream]   configuration: --enable-gpl --enable-version3 --enable-static --disable-w32threads --disable-autodetect --enable-fontconfig --enable-iconv --enable-gnutls --enable-lcms2 --enable-libxml2 --enable-gmp --enable-bzlib --enable-lzma --enable-libsnappy --enable-zlib --enable-librist --enable-libsrt --enable-libssh --enable-libzmq --enable-avisynth --enable-libbluray --enable-libcaca --enable-libdvdnav --enable-libdvdread --enable-sdl2 --enable-libaribb24 --enable-libaribcaption --enable-libdav1d --enable-libdavs2 --enable-libopenjpeg --enable-libquirc --enable-libuavs3d --enable-libxevd --enable-libzvbi --enable-liboapv --enable-libqrencode --enable-librav1e --enable-libsvtav1 --enable-libvvenc --enable-libwebp --enable-libx264 --enable-libx265 --enable-libxavs2 --enable-libxeve --enable-libxvid --enable-libaom --enable-libjxl --enable-libvpx --enable-mediafoundation --enable-libass --enable-frei0r --enable-libfreetype --enable-libfribidi --enable-libharfbuzz --enable-liblensfun --enable-libvidstab --enable-libvmaf --enable-libzimg --enable-amf --enable-cuda-llvm --enable-cuvid --enable-dxva2 --enable-d3d11va --enable-d3d12va --enable-ffnvcodec --enable-libvpl --enable-nvdec --enable-nvenc --enable-vaapi --enable-libshaderc --enable-vulkan --enable-libplacebo --enable-opencl --enable-libcdio --enable-openal --enable-libgme --enable-libmodplug --enable-libopenmpt --enable-libopencore-amrwb --enable-libmp3lame --enable-libshine --enable-libtheora --enable-libtwolame --enable-libvo-amrwbenc --enable-libcodec2 --enable-libilbc --enable-libgsm --enable-liblc3 --enable-libopencore-amrnb --enable-libopus --enable-libspeex --enable-libvorbis --enable-ladspa --enable-libbs2b --enable-libflite --enable-libmysofa --enable-librubberband --enable-libsoxr --enable-chromaprint --enable-whisper
2025-11-24 17:42:52.103 [INF] [Stream]   libavutil      60. 13.100 / 60. 13.100
2025-11-24 17:42:52.105 [INF] [Stream]   libavcodec     62. 16.100 / 62. 16.100
2025-11-24 17:42:52.106 [INF] [Stream]   libavformat    62.  6.101 / 62.  6.101
2025-11-24 17:42:52.108 [INF] [Stream]   libavdev
2025-11-24 17:42:52.109 [INF] [Stream] ice    62.  2.100 / 62.  2.100
2025-11-24 17:42:52.110 [INF] [Stream]   libavfilter    11.  9.100 / 11.  9.100
2025-11-24 17:42:52.111 [INF] [Stream]   libswscale      9.  3.100 /  9.  3.100
2025-11-24 17:42:52.113 [INF] [Stream]   libswresample   6.  2.100 /  6.  2.100
2025-11-24 17:42:52.114 [INF] [Stream] Input #0, lavfi, from 'testsrc=size=1280x720:rate=30':
2025-11-24 17:42:52.115 [INF] [Stream]   Duration: N/A, start: 0.000000, bitrate: N/A
2025-11-24 17:42:52.121 [INF] [Stream]   Stream #0:0: Video: wrapped_avframe, rgb24, 1280x720 [SAR 1:1 DAR 16:9], 30 fps, 30 tbr, 30 tbn
2025-11-24 17:42:52.122 [INF] [Stream] [out @ 000001a4b5900f80] The "sample_fmts" option is deprecated: set the supported sample formats
2025-11-24 17:42:52.123 [INF] [Stream] [out @ 000001a4b5900f80] The "all_channel_counts" option is deprecated: accept all channel counts
2025-11-24 17:42:52.124 [INF] [Stream] Input #1, lavfi, from 'sine=frequency=1000':
2025-11-24 17:42:52.125 [INF] [Stream]   Duration: N/A, start: 0.000000, bitrate: 705 kb/s
2025-11-24 17:42:52.126 [INF] [Stream]   Stream #1:0: Audio: pcm_s16le, 44100 Hz, mono, s16, 705 kb/s
2025-11-24 17:42:52.127 [INF] [Stream] [out#0/flv @ 000001a4b59032c0] Codec AVOption b:a (set bitrate (in bits/s)) has not been used for any stream. The most likely reason is either wrong type (e.g. a video option with no video streams) or that it is a private option of some decoder which was not actually used for any stream.
2025-11-24 17:42:52.855 [INF] [Stream] [out#1/flv @ 000001a4b5f82800]
2025-11-24 17:42:52.857 [INF] [Stream]  Codec AVOption b:a (set bitrate (in bits/s)) has not been used for any stream. The most likely reason is either wrong type (e.g. a video option with no video streams) or that it is a private option of some decoder which was not actually used for any stream.
2025-11-24 17:42:53.280 [INF] [Stream] [rtmps @ 000001a4b5f81400]
2025-11-24 17:42:53.282 [ERR] [Stream]  Server error: Publish Rejected: Invalid URL
2025-11-24 17:42:53.283 [ERR] [Stream] [out#1/flv @ 000001a4b5f82800] Error opening output rtmps://live-api-s.facebook.com:443/rtmp/FB-1526913761827855-0-Ab2GXPRKntgJTLPWN8A08ZSR: Operation not permitted
2025-11-24 17:42:53.284 [ERR] [Stream] Error opening output file rtmps://live-api-s.facebook.com:443/rtmp/FB-1526913761827855-0-Ab2GXPRKntgJTLPWN8A08ZSR.
2025-11-24 17:42:53.285 [ERR] [Stream] Error opening output files: Operation not permitted
2025-11-24 17:42:53.286 [INF] [Stream] FFmpeg: Yayın hatası oluştu. RTMP adresini, stream key’i ve internet bağlantısını kontrol edin.
2025-11-24 17:42:53.287 [WRN] [Stream] FFmpeg beklenmedik çıkış kodu: -1
2025-11-24 17:42:53.289 [INF] [Stream] [ffmpeg] Çıkış kodu: -1
2025-11-24 17:43:18.792 [INF] MainWindow kapatılıyor, kaynaklar serbest bırakılıyor...
2025-11-24 17:43:18.795 [INF] [Stream] [stop] Yayın durduruluyor...
2025-11-24 17:55:02.258 [INF] ===================================================
2025-11-24 17:55:02.278 [INF] UniCast Başlatılıyor... Versiyon: 1.0.0.0
2025-11-24 17:55:02.280 [INF] ===================================================
2025-11-24 17:55:02.812 [INF] MainWindow yüklendi, servisler başlatılıyor...
2025-11-24 17:55:18.022 [INF] MainWindow kapatılıyor, kaynaklar serbest bırakılıyor...
2025-11-24 17:55:18.031 [INF] [Stream] [stop] Aktif yayın süreci yok.
2025-11-24 17:55:18.034 [INF] Uygulama kapatılıyor. Çıkış Kodu: 0
2025-11-24 17:55:20.622 [INF] ===================================================
2025-11-24 17:55:20.642 [INF] UniCast Başlatılıyor... Versiyon: 1.0.0.0
2025-11-24 17:55:20.644 [INF] ===================================================
2025-11-24 17:55:21.149 [INF] MainWindow yüklendi, servisler başlatılıyor...
2025-11-24 17:55:22.203 [INF] [Stream] [start] Yayın başladı. Profil: Default
2025-11-24 17:55:22.230 [INF] [Stream] ffmpeg version 2025-10-19-git-dc39a576ad-full_build-www.gyan.dev
2025-11-24 17:55:22.232 [INF] [Stream]  Copyright (c) 2000-2025 the FFmpeg developers
2025-11-24 17:55:22.232 [INF] [Stream]   built with gcc 15.2.0 (Rev8, Built by MSYS2 project)
2025-11-24 17:55:22.234 [INF] [Stream]   configuration: --enable-gpl --enable-version3 --enable-static --disable-w32threads --disable-autodetect --enable-fontconfig --enable-iconv --enable-gnutls --enable-lcms2 --enable-libxml2 --enable-gmp --enable-bzlib --enable-lzma --enable-libsnappy --enable-zlib --enable-librist --enable-libsrt --enable-libssh --enable-libzmq --enable-avisynth --enable-libbluray --enable-libcaca --enable-libdvdnav --enable-libdvdread --enable-sdl2 --enable-libaribb24 --enable-libaribcaption --enable-libdav1d --enable-libdavs2 --enable-libopenjpeg --enable-libquirc --enable-libuavs3d --enable-libxevd --enable-libzvbi --enable-liboapv --enable-libqrencode --enable-librav1e --enable-libsvtav1 --enable-libvvenc --enable-libwebp --enable-libx264 --enable-libx265 --enable-libxavs2 --enable-libxeve --enable-libxvid --enable-libaom --enable-libjxl --enable-libvpx --enable-mediafoundation --enable-libass --enable-frei0r --enable-libfreetype --enable-libfribidi --enable-libharfbuzz --enable-liblensfun --enable-libvidstab --enable-libvmaf --enable-libzimg --enable-amf --enable-cuda-llvm --enable-cuvid --enable-dxva2 --enable-d3d11va --enable-d3d12va --enable-ffnvcodec --enable-libvpl --enable-nvdec --enable-nvenc --enable-vaapi --enable-libshaderc --enable-vulkan --enable-libplacebo --enable-opencl --enable-libcdio --enable-openal --enable-libgme --enable-libmodplug --enable-libopenmpt --enable-libopencore-amrwb --enable-libmp3lame --enable-libshine --enable-libtheora --enable-libtwolame --enable-libvo-amrwbenc --enable-libcodec2 --enable-libilbc --enable-libgsm --enable-liblc3 --enable-libopencore-amrnb --enable-libopus --enable-libspeex --enable-libvorbis --enable-ladspa --enable-libbs2b --enable-libflite --enable-libmysofa --enable-librubberband --enable-libsoxr --enable-chromaprint --enable-whisper
2025-11-24 17:55:22.235 [INF] [Stream]   libavutil      60. 13.100 / 60. 13.100
2025-11-24 17:55:22.236 [INF] [Stream]   libavcodec     62. 16.100 / 62. 16.100
2025-11-24 17:55:22.237 [INF] [Stream]   libavformat    62.  6.101 / 62.  6.101
2025-11-24 17:55:22.238 [INF] [Stream]   libavdev
2025-11-24 17:55:22.239 [INF] [Stream] ice    62.  2.100 / 62.  2.100
2025-11-24 17:55:22.241 [INF] [Stream]   libavfilter    11.  9.100 / 11.  9.100
2025-11-24 17:55:22.242 [INF] [Stream]   libswscale      9.  3.100 /  9.  3.100
2025-11-24 17:55:22.244 [INF] [Stream]   libswresample   6.  2.100 /  6.  2.100
2025-11-24 17:55:22.245 [INF] [Stream] Input #0, lavfi, from 'testsrc=size=1280x720:rate=30':
2025-11-24 17:55:22.246 [INF] [Stream]   Duration: N/A, start: 0.000000, bitrate: N/A
2025-11-24 17:55:22.251 [INF] [Stream]   Stream #0:0: Video: wrapped_avframe, rgb24, 1280x720 [SAR 1:1 DAR 16:9], 30 fps, 30 tbr, 30 tbn
2025-11-24 17:55:22.253 [INF] [Stream] [out @ 000001e2b8e70f80] The "sample_fmts" option is deprecated: set the supported sample formats
2025-11-24 17:55:22.254 [INF] [Stream] [out @ 000001e2b8e70f80] The "all_channel_counts" option is deprecated: accept all channel counts
2025-11-24 17:55:22.256 [INF] [Stream] Input #1, lavfi, from 'sine=frequency=1000':
2025-11-24 17:55:22.257 [INF] [Stream]   Duration: N/A, start: 0.000000, bitrate: 705 kb/s
2025-11-24 17:55:22.258 [INF] [Stream]   Stream #1:0: Audio: pcm_s16le, 44100 Hz, mono, s16, 705 kb/s
2025-11-24 17:55:22.259 [INF] [Stream] [out#0/flv @ 000001e2b8e73500] Codec AVOption b:a (set bitrate (in bits/s)) has not been used for any stream. The most likely reason is either wrong type (e.g. a video option with no video streams) or that it is a private option of some decoder which was not actually used for any stream.
2025-11-24 17:55:23.176 [INF] [Stream] [out#1/flv @ 000001e2b9501b40]
2025-11-24 17:55:23.177 [INF] [Stream]  Codec AVOption b:a (set bitrate (in bits/s)) has not been used for any stream. The most likely reason is either wrong type (e.g. a video option with no video streams) or that it is a private option of some decoder which was not actually used for any stream.
2025-11-24 17:55:23.795 [INF] [Stream] [rtmps @ 000001e2b9501840]
2025-11-24 17:55:23.797 [ERR] [Stream]  Server error: Publish Rejected: Invalid URL
2025-11-24 17:55:23.798 [ERR] [Stream] [out#1/flv @ 000001e2b9501b40] Error opening output rtmps://live-api-s.facebook.com:443/rtmp/FB-1526913761827855-0-Ab2GXPRKntgJTLPWN8A08ZSR: Operation not permitted
2025-11-24 17:55:23.799 [ERR] [Stream] Error opening output file rtmps://live-api-s.facebook.com:443/rtmp/FB-1526913761827855-0-Ab2GXPRKntgJTLPWN8A08ZSR.
2025-11-24 17:55:23.801 [ERR] [Stream] Error opening output files: Operation not permitted
2025-11-24 17:55:23.802 [INF] [Stream] FFmpeg: Yayın hatası oluştu. RTMP adresini, stream key’i ve internet bağlantısını kontrol edin.
2025-11-24 17:55:23.804 [WRN] [Stream] FFmpeg beklenmedik çıkış kodu: -1
2025-11-24 17:55:23.805 [INF] [Stream] [ffmpeg] Çıkış kodu: -1
2025-11-24 17:55:57.447 [INF] [Stream] [stop] Yayın durduruluyor...
2025-11-24 17:56:00.404 [INF] [Stream] [start] Yayın başladı. Profil: Default
2025-11-24 17:56:00.429 [INF] [Stream] ffmpeg version 2025-10-19-git-dc39a576ad-full_build-www.gyan.dev
2025-11-24 17:56:00.431 [INF] [Stream]  Copyright (c) 2000-2025 the FFmpeg developers
2025-11-24 17:56:00.432 [INF] [Stream]   built with gcc 15.2.0 (Rev8, Built by MSYS2 project)
2025-11-24 17:56:00.432 [INF] [Stream]   configuration: --enable-gpl --enable-version3 --enable-static --disable-w32threads --disable-autodetect --enable-fontconfig --enable-iconv --enable-gnutls --enable-lcms2 --enable-libxml2 --enable-gmp --enable-bzlib --enable-lzma --enable-libsnappy --enable-zlib --enable-librist --enable-libsrt --enable-libssh --enable-libzmq --enable-avisynth --enable-libbluray --enable-libcaca --enable-libdvdnav --enable-libdvdread --enable-sdl2 --enable-libaribb24 --enable-libaribcaption --enable-libdav1d --enable-libdavs2 --enable-libopenjpeg --enable-libquirc --enable-libuavs3d --enable-libxevd --enable-libzvbi --enable-liboapv --enable-libqrencode --enable-librav1e --enable-libsvtav1 --enable-libvvenc --enable-libwebp --enable-libx264 --enable-libx265 --enable-libxavs2 --enable-libxeve --enable-libxvid --enable-libaom --enable-libjxl --enable-libvpx --enable-mediafoundation --enable-libass --enable-frei0r --enable-libfreetype --enable-libfribidi --enable-libharfbuzz --enable-liblensfun --enable-libvidstab --enable-libvmaf --enable-libzimg --enable-amf --enable-cuda-llvm --enable-cuvid --enable-dxva2 --enable-d3d11va --enable-d3d12va --enable-ffnvcodec --enable-libvpl --enable-nvdec --enable-nvenc --enable-vaapi --enable-libshaderc --enable-vulkan --enable-libplacebo --enable-opencl --enable-libcdio --enable-openal --enable-libgme --enable-libmodplug --enable-libopenmpt --enable-libopencore-amrwb --enable-libmp3lame --enable-libshine --enable-libtheora --enable-libtwolame --enable-libvo-amrwbenc --enable-libcodec2 --enable-libilbc --enable-libgsm --enable-liblc3 --enable-libopencore-amrnb --enable-libopus --enable-libspeex --enable-libvorbis --enable-ladspa --enable-libbs2b --enable-libflite --enable-libmysofa --enable-librubberband --enable-libsoxr --enable-chromaprint --enable-whisper
2025-11-24 17:56:00.434 [INF] [Stream]   libavutil      60. 13.100 / 60. 13.100
2025-11-24 17:56:00.434 [INF] [Stream]   libavcodec     62. 16.100 / 62. 16.100
2025-11-24 17:56:00.435 [INF] [Stream]   libavformat    62.  6.101 / 62.  6.101
2025-11-24 17:56:00.436 [INF] [Stream]   libavdev
2025-11-24 17:56:00.437 [INF] [Stream] ice    62.  2.100 / 62.  2.100
2025-11-24 17:56:00.438 [INF] [Stream]   libavfilter    11.  9.100 / 11.  9.100
2025-11-24 17:56:00.439 [INF] [Stream]   libswscale      9.  3.100 /  9.  3.100
2025-11-24 17:56:00.440 [INF] [Stream]   libswresample   6.  2.100 /  6.  2.100
2025-11-24 17:56:00.442 [INF] [Stream] Input #0, lavfi, from 'testsrc=size=1280x720:rate=30':
2025-11-24 17:56:00.443 [INF] [Stream]   Duration: N/A, start: 0.000000, bitrate: N/A
2025-11-24 17:56:00.444 [INF] [Stream]   Stream #0:0: Video: wrapped_avframe, rgb24, 1280x720 [SAR 1:1 DAR 16:9], 30 fps, 30 tbr, 30 tbn
2025-11-24 17:56:00.445 [INF] [Stream] [out @ 00000186fba90f80] The "sample_fmts" option is deprecated: set the supported sample formats
2025-11-24 17:56:00.445 [INF] [Stream] [out @ 00000186fba90f80] The "all_channel_counts" option is deprecated: accept all channel counts
2025-11-24 17:56:00.446 [INF] [Stream] Input #1, lavfi, from 'sine=frequency=1000':
2025-11-24 17:56:00.447 [INF] [Stream]   Duration: N/A, start: 0.000000, bitrate: 705 kb/s
2025-11-24 17:56:00.448 [INF] [Stream]   Stream #1:0: Audio: pcm_s16le, 44100 Hz, mono, s16, 705 kb/s
2025-11-24 17:56:00.449 [INF] [Stream] [out#0/flv @ 00000186fba93600] Codec AVOption b:a (set bitrate (in bits/s)) has not been used for any stream. The most likely reason is either wrong type (e.g. a video option with no video streams) or that it is a private option of some decoder which was not actually used for any stream.
2025-11-24 17:56:01.172 [INF] [Stream] [out#1/flv @ 00000186fc111840]
2025-11-24 17:56:01.174 [INF] [Stream]  Codec AVOption b:a (set bitrate (in bits/s)) has not been used for any stream. The most likely reason is either wrong type (e.g. a video option with no video streams) or that it is a private option of some decoder which was not actually used for any stream.
2025-11-24 17:56:03.596 [INF] [Stream] Stream mapping:
2025-11-24 17:56:03.599 [INF] [Stream]   Stream #0:0 -> #0:0 (wrapped_avframe (native) -> h264 (libx264))
2025-11-24 17:56:03.600 [INF] [Stream]   Stream #0:0 -> #1:0 (wrapped_avframe (native) -> h264 (libx264))
2025-11-24 17:56:03.601 [INF] [Stream] Press [q] to stop, [?] for help
2025-11-24 17:56:03.604 [INF] [Stream] [libx264 @ 00000186fc1e4300]
2025-11-24 17:56:03.606 [INF] [Stream]  using SAR=1/1
2025-11-24 17:56:03.606 [INF] [Stream] [libx264 @ 00000186fba96380] using SAR=1/1
2025-11-24 17:56:03.608 [INF] [Stream] [libx264 @ 00000186fc1e4300] using cpu capabilities: MMX2 SSE2Fast SSSE3 SSE4.2 AVX FMA3 BMI2 AVX2 AVX512
2025-11-24 17:56:03.609 [INF] [Stream] [libx264 @ 00000186fba96380] using cpu capabilities: MMX2 SSE2Fast SSSE3 SSE4.2 AVX FMA3 BMI2 AVX2 AVX512
2025-11-24 17:56:03.611 [INF] [Stream] [libx264 @ 00000186fc1e4300] profile Constrained Baseline, level 3.1, 4:2:0, 8-bit
2025-11-24 17:56:03.614 [INF] [Stream] Output #1, flv, to 'rtmps://live-api-s.facebook.com:443/rtmp/FB-1526913761827855-0-Ab2GXPRKntgJTLPWN8A08ZSR':
2025-11-24 17:56:03.616 [INF] [Stream]   Metadata:
2025-11-24 17:56:03.618 [INF] [Stream]     encoder         : Lavf62.6.101
2025-11-24 17:56:03.620 [INF] [Stream]   Stream #1:0: Video: h264 ([7][0][0][0] / 0x0007), yuv420p(tv, progressive), 1280x720 [SAR 1:1 DAR 16:9], q=2-31, 2500 kb/s, 30 fps, 1k tbn
2025-11-24 17:56:03.621 [INF] [Stream]     Metadata:
2025-11-24 17:56:03.623 [INF] [Stream]       encoder         : Lavc62.16.100 libx264
2025-11-24 17:56:03.625 [INF] [Stream]     Side data:
2025-11-24 17:56:03.626 [INF] [Stream]       CPB properties: bitrate max/min/avg: 2500000/0/2500000 buffer size: 5000000 vbv_delay: N/A
2025-11-24 17:56:03.628 [INF] [Stream] [libx264 @ 00000186fba96380] profile Constrained Baseline, level 3.1, 4:2:0, 8-bit
2025-11-24 17:56:03.629 [INF] [Stream] Output #0, flv, to 'rtmps://a.rtmps.youtube.com/live2/e54v-pkzg-y2ss-wjff-6ghh':
2025-11-24 17:56:03.631 [INF] [Stream]   Metadata:
2025-11-24 17:56:03.633 [INF] [Stream]     encoder         : Lavf62.6.101
2025-11-24 17:56:03.634 [INF] [Stream]   Stream #0:0: Video: h264 ([7][0][0][0] / 0x0007), yuv420p(tv, progressive), 1280x720 [SAR 1:1 DAR 16:9], q=2-31, 2500 kb/s, 30 fps, 1k tbn
2025-11-24 17:56:03.636 [INF] [Stream]     Metadata:
2025-11-24 17:56:03.637 [INF] [Stream]       encoder         : Lavc62.16.100 libx264
2025-11-24 17:56:03.638 [INF] [Stream]     Side data:
2025-11-24 17:56:03.640 [INF] [Stream]       CPB properties: bitrate max/min/avg: 2500000/0/2500000 buffer size: 5000000 vbv_delay: N/A
2025-11-24 17:58:21.779 [INF] [Stream] [tls @ 00000186fba6e880]
2025-11-24 17:58:21.782 [ERR] [Stream]  Error in the push function.
2025-11-24 17:58:21.784 [ERR] [Stream] [tls @ 00000186fba6e880] IO error: Error number -10054 occurred
2025-11-24 17:58:21.785 [ERR] [Stream] [vost#1:0/libx264 @ 00000186fc1dc8c0] Error submitting a packet to the muxer: Error number -10054 occurred
2025-11-24 17:58:21.787 [INF] [Stream]     Last message repeated 1 times
2025-11-24 17:58:21.788 [ERR] [Stream] [out#1/flv @ 00000186fc111840] Error muxing a packet
2025-11-24 17:58:21.790 [ERR] [Stream] [out#1/flv @ 00000186fc111840] Task finished with error code: -10054 (Error number -10054 occurred)
2025-11-24 17:58:21.791 [ERR] [Stream] [out#1/flv @ 00000186fc111840] Terminating thread with return code -10054 (Error number -10054 occurred)
2025-11-24 17:58:21.959 [INF] [Stream] [flv @ 00000186fba90bc0]
2025-11-24 17:58:21.963 [ERR] [Stream]  Failed to update header with correct duration.
2025-11-24 17:58:21.965 [ERR] [Stream] [flv @ 00000186fba90bc0] Failed to update header with correct filesize.
2025-11-24 17:58:21.966 [INF] [Stream] [out#0/flv @ 00000186fba93600] video:56510KiB audio:0KiB subtitle:0KiB other streams:0KiB global headers:0KiB muxing overhead: 0.395966%
2025-11-24 17:58:21.968 [ERR] [Stream] [flv @ 00000186fba9b7c0] Failed to update header with correct duration.
2025-11-24 17:58:21.969 [ERR] [Stream] [flv @ 00000186fba9b7c0] Failed to update header with correct filesize.
2025-11-24 17:58:21.971 [ERR] [Stream] [out#1/flv @ 00000186fc111840] Error writing trailer: Error number -10054 occurred
2025-11-24 17:58:21.972 [INF] [Stream] [tls @ 00000186fba6e880] The specified session has been invalidated for some reason.
2025-11-24 17:58:21.973 [INF] [Stream]     L
2025-11-24 17:58:21.974 [INF] [Stream] ast message repeated 1 times
2025-11-24 17:58:21.976 [ERR] [Stream] [out#1/flv @ 00000186fc111840] Error closing file: I/O error
2025-11-24 17:58:21.977 [INF] [Stream] [out#1/flv @ 00000186fc111840] video:56349KiB audio:0KiB subtitle:0KiB other streams:0KiB global headers:0KiB muxing overhead: 0.383343%
2025-11-24 17:58:21.978 [INF] [Stream] FFmpeg: Yayın hatası oluştu. RTMP adresini, stream key’i ve internet bağlantısını kontrol edin.
2025-11-24 17:58:21.979 [INF] [Stream] [libx264 @ 00000186fba96380] frame I:31    Avg QP: 0.92  size: 38853
2025-11-24 17:58:21.980 [WRN] [Stream] FFmpeg beklenmedik çıkış kodu: -10054
2025-11-24 17:58:21.981 [INF] [Stream] [libx264 @ 00000186fba96380] frame P:7597  Avg QP: 0.04  size:  7458
2025-11-24 17:58:21.983 [INF] [Stream] [ffmpeg] Çıkış kodu: -10054
2025-11-24 17:58:21.984 [INF] [Stream] [libx264 @ 00000186fba96380] mb I  I16..4: 100.0%  0.0%  0.0%
2025-11-24 17:58:21.986 [INF] [Stream] [libx264 @ 00000186fba96380] mb P  I16..4:  9.6%  0.0%  0.0%  P16..4:  6.6%  0.0%  0.0%  0.0%  0.0%    skip:83.8%
2025-11-24 17:58:21.987 [INF] [Stream] [libx264 @ 00000186fba96380] coded y,uvDC,uvAC intra: 1.4% 30.2% 30.0% inter: 2.7% 6.0% 6.0%
2025-11-24 17:58:21.988 [INF] [Stream] [libx264 @ 00000186fba96380] i16 v,h,dc,p: 98%  1%  1%  0%
2025-11-24 17:58:21.989 [INF] [Stream] [libx264 @ 00000186fba96380] i8c dc,h,v,p:  9%  2% 69% 21%
2025-11-24 17:58:21.992 [INF] [Stream] [libx264 @ 00000186fba96380] kb/s:1820.62
2025-11-24 17:58:21.993 [INF] [Stream] [libx264 @ 00000186fc1e4300] frame I:31    Avg QP: 0.92  size: 38853
2025-11-24 17:58:21.994 [INF] [Stream] [libx264 @ 00000186fc1e4300] frame P:7597  Avg QP: 0.04  size:  7459
2025-11-24 17:58:21.996 [INF] [Stream] [libx264 @ 00000186fc1e4300] mb I  I16..4: 100.0%  0.0%  0.0%
2025-11-24 17:58:21.997 [INF] [Stream] [libx264 @ 00000186fc1e4300] mb P  I16..4:  9.6%  0.0%  0.0%  P16..4:  6.6%  0.0%  0.0%  0.0%  0.0%    skip:83.8%
2025-11-24 17:58:21.998 [INF] [Stream] [libx264 @ 00000186fc1e4300] coded y,uvDC,uvAC intra: 1.4% 30.2% 30.0% inter: 2.7% 6.0% 6.0%
2025-11-24 17:58:21.999 [INF] [Stream] [libx264 @ 00000186fc1e4300] i16 v,h,dc,p: 98%  1%  1%  0%
2025-11-24 17:58:22.001 [INF] [Stream] [libx264 @ 00000186fc1e4300] i8c dc,h,v,p:  9%  2% 69% 21%
2025-11-24 17:58:22.002 [INF] [Stream] [libx264 @ 00000186fc1e4300] kb/s:1820.82
2025-11-24 17:58:22.003 [ERR] [Stream] Conversion failed!
2025-11-24 17:58:59.950 [INF] MainWindow kapatılıyor, kaynaklar serbest bırakılıyor...
2025-11-24 17:58:59.952 [INF] [Stream] [stop] Yayın durduruluyor...
2025-11-24 17:59:58.850 [INF] ===================================================
2025-11-24 17:59:58.873 [INF] UniCast Başlatılıyor... Versiyon: 1.0.0.0
2025-11-24 17:59:58.874 [INF] ===================================================
2025-11-24 17:59:59.434 [INF] MainWindow yüklendi, servisler başlatılıyor...
2025-11-24 18:00:10.611 [INF] [Stream] [start] Yayın başladı. Profil: Default
2025-11-24 18:00:10.642 [INF] [Stream] ffmpeg version 2025-10-19-git-dc39a576ad-full_build-www.gyan.dev
2025-11-24 18:00:10.644 [INF] [Stream]  Copyright (c) 2000-2025 the FFmpeg developers
2025-11-24 18:00:10.645 [INF] [Stream]   built with gcc 15.2.0 (Rev8, Built by MSYS2 project)
2025-11-24 18:00:10.646 [INF] [Stream]   configuration: --enable-gpl --enable-version3 --enable-static --disable-w32threads --disable-autodetect --enable-fontconfig --enable-iconv --enable-gnutls --enable-lcms2 --enable-libxml2 --enable-gmp --enable-bzlib --enable-lzma --enable-libsnappy --enable-zlib --enable-librist --enable-libsrt --enable-libssh --enable-libzmq --enable-avisynth --enable-libbluray --enable-libcaca --enable-libdvdnav --enable-libdvdread --enable-sdl2 --enable-libaribb24 --enable-libaribcaption --enable-libdav1d --enable-libdavs2 --enable-libopenjpeg --enable-libquirc --enable-libuavs3d --enable-libxevd --enable-libzvbi --enable-liboapv --enable-libqrencode --enable-librav1e --enable-libsvtav1 --enable-libvvenc --enable-libwebp --enable-libx264 --enable-libx265 --enable-libxavs2 --enable-libxeve --enable-libxvid --enable-libaom --enable-libjxl --enable-libvpx --enable-mediafoundation --enable-libass --enable-frei0r --enable-libfreetype --enable-libfribidi --enable-libharfbuzz --enable-liblensfun --enable-libvidstab --enable-libvmaf --enable-libzimg --enable-amf --enable-cuda-llvm --enable-cuvid --enable-dxva2 --enable-d3d11va --enable-d3d12va --enable-ffnvcodec --enable-libvpl --enable-nvdec --enable-nvenc --enable-vaapi --enable-libshaderc --enable-vulkan --enable-libplacebo --enable-opencl --enable-libcdio --enable-openal --enable-libgme --enable-libmodplug --enable-libopenmpt --enable-libopencore-amrwb --enable-libmp3lame --enable-libshine --enable-libtheora --enable-libtwolame --enable-libvo-amrwbenc --enable-libcodec2 --enable-libilbc --enable-libgsm --enable-liblc3 --enable-libopencore-amrnb --enable-libopus --enable-libspeex --enable-libvorbis --enable-ladspa --enable-libbs2b --enable-libflite --enable-libmysofa --enable-librubberband --enable-libsoxr --enable-chromaprint --enable-whisper
2025-11-24 18:00:10.647 [INF] [Stream]   libavutil      60. 13.100 / 60. 13.100
2025-11-24 18:00:10.649 [INF] [Stream]   libavcodec     62. 16.100 / 62. 16.100
2025-11-24 18:00:10.650 [INF] [Stream]   libavformat    62.  6.101 / 62.  6.101
2025-11-24 18:00:10.651 [INF] [Stream]   libavdev
2025-11-24 18:00:10.652 [INF] [Stream] ice    62.  2.100 / 62.  2.100
2025-11-24 18:00:10.653 [INF] [Stream]   libavfilter    11.  9.100 / 11.  9.100
2025-11-24 18:00:10.654 [INF] [Stream]   libswscale      9.  3.100 /  9.  3.100
2025-11-24 18:00:10.655 [INF] [Stream]   libswresample   6.  2.100 /  6.  2.100
2025-11-24 18:00:10.656 [INF] [Stream] Input #0, lavfi, from 'testsrc=size=1280x720:rate=30':
2025-11-24 18:00:10.657 [INF] [Stream]   Duration: N/A, start: 0.000000, bitrate: N/A
2025-11-24 18:00:10.662 [INF] [Stream]   Stream #0:0: Video: wrapped_avframe, rgb24, 1280x720 [SAR 1:1 DAR 16:9], 30 fps, 30 tbr, 30 tbn
2025-11-24 18:00:10.663 [INF] [Stream] [out @ 000001c579170f80] The "sample_fmts" option is deprecated: set the supported sample formats
2025-11-24 18:00:10.664 [INF] [Stream] [out @ 000001c579170f80] The "all_channel_counts" option is deprecated: accept all channel counts
2025-11-24 18:00:10.665 [INF] [Stream] Input #1, lavfi, from 'sine=frequency=1000':
2025-11-24 18:00:10.666 [INF] [Stream]   Duration: N/A, start: 0.000000, bitrate: 705 kb/s
2025-11-24 18:00:10.667 [INF] [Stream]   Stream #1:0: Audio: pcm_s16le, 44100 Hz, mono, s16, 705 kb/s
2025-11-24 18:00:10.668 [INF] [Stream] [out#0/flv @ 000001c5791730c0] Codec AVOption b:a (set bitrate (in bits/s)) has not been used for any stream. The most likely reason is either wrong type (e.g. a video option with no video streams) or that it is a private option of some decoder which was not actually used for any stream.
2025-11-24 18:00:11.485 [INF] [Stream] [out#1/flv @ 000001c5797f2940]
2025-11-24 18:00:11.486 [INF] [Stream]  Codec AVOption b:a (set bitrate (in bits/s)) has not been used for any stream. The most likely reason is either wrong type (e.g. a video option with no video streams) or that it is a private option of some decoder which was not actually used for any stream.
2025-11-24 18:00:14.214 [INF] [Stream] Stream mapping:
2025-11-24 18:00:14.216 [INF] [Stream]   Stream #0:0 -> #0:0 (wrapped_avframe (native) -> h264 (libx264))
2025-11-24 18:00:14.217 [INF] [Stream]   Stream #0:0 -> #1:0 (wrapped_avframe (native) -> h264 (libx264))
2025-11-24 18:00:14.218 [INF] [Stream] Press [q] to stop, [?] for help
2025-11-24 18:00:14.222 [INF] [Stream] [libx264 @ 000001c5798c4300]
2025-11-24 18:00:14.223 [INF] [Stream]  using SAR=1/1
2025-11-24 18:00:14.224 [INF] [Stream] [libx264 @ 000001c579176380] using SAR=1/1
2025-11-24 18:00:14.225 [INF] [Stream] [libx264 @ 000001c579176380] using cpu capabilities: MMX2 SSE2Fast SSSE3 SSE4.2 AVX FMA3 BMI2 AVX2 AVX512
2025-11-24 18:00:14.227 [INF] [Stream] [libx264 @ 000001c5798c4300] using cpu capabilities: MMX2 SSE2Fast SSSE3 SSE4.2 AVX FMA3 BMI2 AVX2 AVX512
2025-11-24 18:00:14.229 [INF] [Stream] [libx264 @ 000001c579176380] profile Constrained Baseline, level 3.1, 4:2:0, 8-bit
2025-11-24 18:00:14.232 [INF] [Stream] Output #0, flv, to 'rtmps://a.rtmps.youtube.com/live2/e54v-pkzg-y2ss-wjff-6ghh':
2025-11-24 18:00:14.234 [INF] [Stream]   Metadata:
2025-11-24 18:00:14.236 [INF] [Stream]     encoder         : Lavf62.6.101
2025-11-24 18:00:14.238 [INF] [Stream]   Stream #0:0: Video: h264 ([7][0][0][0] / 0x0007), yuv420p(tv, progressive), 1280x720 [SAR 1:1 DAR 16:9], q=2-31, 2500 kb/s, 30 fps, 1k tbn
2025-11-24 18:00:14.239 [INF] [Stream]     Metadata:
2025-11-24 18:00:14.241 [INF] [Stream]       encoder         : Lavc62.16.100 libx264
2025-11-24 18:00:14.244 [INF] [Stream]     Side data:
2025-11-24 18:00:14.245 [INF] [Stream]       CPB properties: bitrate max/min/avg: 2500000/0/2500000 buffer size: 5000000 vbv_delay: N/A
2025-11-24 18:00:14.248 [INF] [Stream] [libx264 @ 000001c5798c4300] profile Constrained Baseline, level 3.1, 4:2:0, 8-bit
2025-11-24 18:00:14.250 [INF] [Stream] Output #1, flv, to 'rtmps://live-api-s.facebook.com:443/rtmp/FB-1526913761827855-0-Ab2GXPRKntgJTLPWN8A08ZSR':
2025-11-24 18:00:14.251 [INF] [Stream]   Metadata:
2025-11-24 18:00:14.253 [INF] [Stream]     encoder         : Lavf62.6.101
2025-11-24 18:00:14.255 [INF] [Stream]   Stream #1:0: Video: h264 ([7][0][0][0] / 0x0007), yuv420p(tv, progressive), 1280x720 [SAR 1:1 DAR 16:9], q=2-31, 2500 kb/s, 30 fps, 1k tbn
2025-11-24 18:00:14.256 [INF] [Stream]     Metadata:
2025-11-24 18:00:14.258 [INF] [Stream]       encoder         : Lavc62.16.100 libx264
2025-11-24 18:00:14.259 [INF] [Stream]     Side data:
2025-11-24 18:00:14.261 [INF] [Stream]       CPB properties: bitrate max/min/avg: 2500000/0/2500000 buffer size: 5000000 vbv_delay: N/A
2025-11-24 18:01:55.327 [INF] [Stream] [stop] Yayın durduruluyor...
2025-11-24 18:01:55.374 [ERR] [Stream] stderr read error: A task was canceled.
2025-11-24 18:01:55.376 [INF] [Stream] FFmpeg: Yayın hatası oluştu. RTMP adresini, stream key’i ve internet bağlantısını kontrol edin.
2025-11-24 18:01:55.378 [WRN] [Stream] FFmpeg beklenmedik çıkış kodu: -1
2025-11-24 18:01:55.380 [INF] [Stream] [ffmpeg] Çıkış kodu: -1
2025-11-24 18:02:05.022 [INF] MainWindow kapatılıyor, kaynaklar serbest bırakılıyor...
2025-11-24 18:02:05.024 [INF] [Stream] [stop] Aktif yayın süreci yok.
2025-11-24 18:02:05.028 [INF] Uygulama kapatılıyor. Çıkış Kodu: 0
2025-11-24 18:02:08.527 [INF] ===================================================
2025-11-24 18:02:08.548 [INF] UniCast Başlatılıyor... Versiyon: 1.0.0.0
2025-11-24 18:02:08.549 [INF] ===================================================
2025-11-24 18:02:09.134 [INF] MainWindow yüklendi, servisler başlatılıyor...
2025-11-24 18:02:24.000 [INF] [Stream] [start] Yayın başladı. Profil: Default
2025-11-24 18:02:24.030 [INF] [Stream] ffmpeg version 2025-10-19-git-dc39a576ad-full_build-www.gyan.dev
2025-11-24 18:02:24.032 [INF] [Stream]  Copyright (c) 2000-2025 the FFmpeg developers
2025-11-24 18:02:24.033 [INF] [Stream]   built with gcc 15.2.0 (Rev8, Built by MSYS2 project)
2025-11-24 18:02:24.034 [INF] [Stream]   configuration: --enable-gpl --enable-version3 --enable-static --disable-w32threads --disable-autodetect --enable-fontconfig --enable-iconv --enable-gnutls --enable-lcms2 --enable-libxml2 --enable-gmp --enable-bzlib --enable-lzma --enable-libsnappy --enable-zlib --enable-librist --enable-libsrt --enable-libssh --enable-libzmq --enable-avisynth --enable-libbluray --enable-libcaca --enable-libdvdnav --enable-libdvdread --enable-sdl2 --enable-libaribb24 --enable-libaribcaption --enable-libdav1d --enable-libdavs2 --enable-libopenjpeg --enable-libquirc --enable-libuavs3d --enable-libxevd --enable-libzvbi --enable-liboapv --enable-libqrencode --enable-librav1e --enable-libsvtav1 --enable-libvvenc --enable-libwebp --enable-libx264 --enable-libx265 --enable-libxavs2 --enable-libxeve --enable-libxvid --enable-libaom --enable-libjxl --enable-libvpx --enable-mediafoundation --enable-libass --enable-frei0r --enable-libfreetype --enable-libfribidi --enable-libharfbuzz --enable-liblensfun --enable-libvidstab --enable-libvmaf --enable-libzimg --enable-amf --enable-cuda-llvm --enable-cuvid --enable-dxva2 --enable-d3d11va --enable-d3d12va --enable-ffnvcodec --enable-libvpl --enable-nvdec --enable-nvenc --enable-vaapi --enable-libshaderc --enable-vulkan --enable-libplacebo --enable-opencl --enable-libcdio --enable-openal --enable-libgme --enable-libmodplug --enable-libopenmpt --enable-libopencore-amrwb --enable-libmp3lame --enable-libshine --enable-libtheora --enable-libtwolame --enable-libvo-amrwbenc --enable-libcodec2 --enable-libilbc --enable-libgsm --enable-liblc3 --enable-libopencore-amrnb --enable-libopus --enable-libspeex --enable-libvorbis --enable-ladspa --enable-libbs2b --enable-libflite --enable-libmysofa --enable-librubberband --enable-libsoxr --enable-chromaprint --enable-whisper
2025-11-24 18:02:24.035 [INF] [Stream]   libavutil      60. 13.100 / 60. 13.100
2025-11-24 18:02:24.036 [INF] [Stream]   libavcodec     62. 16.100 / 62. 16.100
2025-11-24 18:02:24.037 [INF] [Stream]   libavformat    62.  6.101 / 62.  6.101
2025-11-24 18:02:24.038 [INF] [Stream]   libavdev
2025-11-24 18:02:24.039 [INF] [Stream] ice    62.  2.100 / 62.  2.100
2025-11-24 18:02:24.039 [INF] [Stream]   libavfilter    11.  9.100 / 11.  9.100
2025-11-24 18:02:24.040 [INF] [Stream]   libswscale      9.  3.100 /  9.  3.100
2025-11-24 18:02:24.041 [INF] [Stream]   libswresample   6.  2.100 /  6.  2.100
2025-11-24 18:02:24.042 [INF] [Stream] Input #0, lavfi, from 'testsrc=size=1280x720:rate=30':
2025-11-24 18:02:24.044 [INF] [Stream]   Duration: N/A, start: 0.000000, bitrate: N/A
2025-11-24 18:02:24.052 [INF] [Stream]   Stream #0:0: Video: wrapped_avframe, rgb24, 1280x720 [SAR 1:1 DAR 16:9], 30 fps, 30 tbr, 30 tbn
2025-11-24 18:02:24.053 [INF] [Stream] [out @ 0000020d0af60f80] The "sample_fmts" option is deprecated: set the supported sample formats
2025-11-24 18:02:24.055 [INF] [Stream] [out @ 0000020d0af60f80] The "all_channel_counts" option is deprecated: accept all channel counts
2025-11-24 18:02:24.056 [INF] [Stream] Input #1, lavfi, from 'sine=frequency=1000':
2025-11-24 18:02:24.057 [INF] [Stream]   Duration: N/A, start: 0.000000, bitrate: 705 kb/s
2025-11-24 18:02:24.059 [INF] [Stream]   Stream #1:0: Audio: pcm_s16le, 44100 Hz, mono, s16, 705 kb/s
2025-11-24 18:02:24.060 [INF] [Stream] [out#0/flv @ 0000020d0af62d80] Codec AVOption b:a (set bitrate (in bits/s)) has not been used for any stream. The most likely reason is either wrong type (e.g. a video option with no video streams) or that it is a private option of some decoder which was not actually used for any stream.
2025-11-24 18:02:24.710 [INF] [Stream] [out#1/flv @ 0000020d0b5f2600]
2025-11-24 18:02:24.712 [INF] [Stream]  Codec AVOption b:a (set bitrate (in bits/s)) has not been used for any stream. The most likely reason is either wrong type (e.g. a video option with no video streams) or that it is a private option of some decoder which was not actually used for any stream.
2025-11-24 18:02:27.233 [INF] [Stream] Stream mapping:
2025-11-24 18:02:27.234 [INF] [Stream]   Stream #0:0 -> #0:0 (wrapped_avframe (native) -> h264 (libx264))
2025-11-24 18:02:27.236 [INF] [Stream]   Stream #0:0 -> #1:0 (wrapped_avframe (native) -> h264 (libx264))
2025-11-24 18:02:27.237 [INF] [Stream] Press [q] to stop, [?] for help
2025-11-24 18:02:27.241 [INF] [Stream] [libx264 @ 0000020d0b6c4300]
2025-11-24 18:02:27.242 [INF] [Stream]  using SAR=1/1
2025-11-24 18:02:27.243 [INF] [Stream] [libx264 @ 0000020d0af66380] using SAR=1/1
2025-11-24 18:02:27.244 [INF] [Stream] [libx264 @ 0000020d0b6c4300] using cpu capabilities: MMX2 SSE2Fast SSSE3 SSE4.2 AVX FMA3 BMI2 AVX2 AVX512
2025-11-24 18:02:27.246 [INF] [Stream] [libx264 @ 0000020d0af66380] using cpu capabilities: MMX2 SSE2Fast SSSE3 SSE4.2 AVX FMA3 BMI2 AVX2 AVX512
2025-11-24 18:02:27.248 [INF] [Stream] [libx264 @ 0000020d0b6c4300] profile Constrained Baseline, level 3.1, 4:2:0, 8-bit
2025-11-24 18:02:27.253 [INF] [Stream] [libx264 @ 0000020d0af66380] profile Constrained Baseline, level 3.1, 4:2:0, 8-bit
2025-11-24 18:02:27.255 [INF] [Stream] Output #1, flv, to 'rtmps://live-api-s.facebook.com:443/rtmp/FB-1526913761827855-0-Ab2GXPRKntgJTLPWN8A08ZSR':
2025-11-24 18:02:27.257 [INF] [Stream]   Metadata:
2025-11-24 18:02:27.259 [INF] [Stream]     encoder         : Lavf62.6.101
2025-11-24 18:02:27.261 [INF] [Stream]   Stream #1:0: Video: h264 ([7][0][0][0] / 0x0007), yuv420p(tv, progressive), 1280x720 [SAR 1:1 DAR 16:9], q=2-31, 2500 kb/s, 30 fps, 1k tbn
2025-11-24 18:02:27.262 [INF] [Stream]     Metadata:
2025-11-24 18:02:27.264 [INF] [Stream]       encoder         : Lavc62.16.100 libx264
2025-11-24 18:02:27.265 [INF] [Stream]     Side data:
2025-11-24 18:02:27.267 [INF] [Stream]       CPB properties: bitrate max/min/avg: 2500000/0/2500000 buffer size: 5000000 vbv_delay: N/A
2025-11-24 18:02:27.268 [INF] [Stream] [libx264 @ 0000020d0af66380] 264 - core 165 r3223 0480cb0 - H.264/MPEG-4 AVC codec - Copyleft 2003-2025 - http://www.videolan.org/x264.html - options: cabac=0 ref=1 deblock=0:0:0 analyse=0:0 me=dia subme=0 psy=1 psy_rd=1.00:0.00 mixed_ref=0 me_range=16 chroma_me=1 trellis=0 8x8dct=0 cqm=0 deadzone=21,11 fast_pskip=1 chroma_qp_offset=0 threads=11 lookahead_threads=11 sliced_threads=1 slices=11 nr=0 decimate=1 interlaced=0 bluray_compat=0 constrained_intra=0 bframes=0 weightp=0 keyin
2025-11-24 18:02:27.271 [INF] [Stream] Output #0, flv, to 'rtmps://a.rtmps.youtube.com/live2/e54v-pkzg-y2ss-wjff-6ghh':
2025-11-24 18:02:27.273 [INF] [Stream]   Metadata:
2025-11-24 18:02:27.274 [INF] [Stream]     encoder         : Lavf62.6.101
2025-11-24 18:02:27.277 [INF] [Stream]   Stream #0:0: Video: h264 ([7][0][0][0] / 0x0007), yuv420p(tv, progressive), 1280x720 [SAR 1:1 DAR 16:9], q=2-31, 2500 kb/s, 30 fps, 1k tbn
2025-11-24 18:02:27.278 [INF] [Stream]     Metadata:
2025-11-24 18:02:27.280 [INF] [Stream]       encoder         : Lavc62.16.100 libx264
2025-11-24 18:02:27.281 [INF] [Stream]     Side data:
2025-11-24 18:02:27.282 [INF] [Stream]       CPB properties: bitrate max/min/avg: 2500000/0/2500000 buffer size: 5000000 vbv_delay: N/A
2025-11-24 18:02:52.950 [INF] MainWindow kapatılıyor, kaynaklar serbest bırakılıyor...
2025-11-24 18:02:52.953 [INF] [Stream] [stop] Yayın durduruluyor...
2025-11-24 18:02:53.003 [INF] [Stream] FFmpeg: Yayın hatası oluştu. RTMP adresini, stream key’i ve internet bağlantısını kontrol edin.
2025-11-24 18:02:53.004 [WRN] [Stream] FFmpeg beklenmedik çıkış kodu: -1
2025-11-24 18:02:53.007 [INF] [Stream] [ffmpeg] Çıkış kodu: -1
